<svg width="25" height="25" viewBox="0 0 25 25" fill="none" xmlns="http://www.w3.org/2000/svg">
<path d="M16.9999 1.8749C17.0001 1.75112 16.9636 1.63007 16.8949 1.52708C16.8263 1.42409 16.7286 1.34381 16.6142 1.29642C16.4999 1.24902 16.374 1.23664 16.2527 1.26085C16.1313 1.28506 16.0198 1.34476 15.9324 1.4324L13.4324 3.9324C13.3744 3.99055 13.3284 4.05956 13.2971 4.13548C13.2658 4.21141 13.2497 4.29277 13.2499 4.3749V7.86615L12.3236 8.79115C12.1383 8.74198 11.9442 8.736 11.7563 8.77367C11.5683 8.81134 11.3915 8.89165 11.2395 9.00843C11.0874 9.1252 10.9642 9.27532 10.8793 9.44721C10.7945 9.61911 10.7502 9.80819 10.7499 9.9999C10.75 10.1778 10.788 10.3536 10.8615 10.5156C10.935 10.6776 11.0422 10.8221 11.176 10.9393C11.3097 11.0566 11.467 11.144 11.6372 11.1956C11.8075 11.2472 11.9868 11.2619 12.1632 11.2386C12.3395 11.2154 12.5089 11.1548 12.66 11.0608C12.811 10.9669 12.9403 10.8418 13.0392 10.6939C13.138 10.546 13.2041 10.3787 13.2332 10.2032C13.2622 10.0277 13.2534 9.84799 13.2074 9.67615L14.1336 8.7499H17.6249C17.707 8.75004 17.7884 8.734 17.8643 8.70269C17.9402 8.67137 18.0092 8.6254 18.0674 8.5674L20.5674 6.0674C20.655 5.97999 20.7147 5.86852 20.7389 5.74714C20.7631 5.62575 20.7508 5.49991 20.7034 5.38557C20.656 5.27123 20.5757 5.17353 20.4727 5.10487C20.3697 5.03621 20.2487 4.99968 20.1249 4.9999H16.9999V1.8749ZM19.4299 8.9724C19.645 10.5289 19.3658 12.1136 18.6318 13.5028C17.8977 14.8921 16.7459 16.0157 15.3389 16.7151C13.9319 17.4145 12.3408 17.6544 10.7901 17.4008C9.23947 17.1472 7.80761 16.413 6.69668 15.3019C5.58574 14.1907 4.85184 12.7587 4.59857 11.208C4.3453 9.65731 4.58545 8.06622 5.28513 6.65935C5.9848 5.25248 7.10866 4.10089 8.49806 3.36713C9.88746 2.63337 11.4722 2.3545 13.0286 2.5699L12.5499 3.04865C12.3756 3.22274 12.2373 3.42948 12.1429 3.65704C12.0485 3.88461 11.9999 4.12854 11.9999 4.3749C10.8874 4.3749 9.79983 4.7048 8.87481 5.32288C7.94978 5.94096 7.22881 6.81947 6.80307 7.8473C6.37732 8.87514 6.26593 10.0061 6.48297 11.0973C6.70001 12.1884 7.23574 13.1907 8.02241 13.9774C8.80908 14.764 9.81136 15.2998 10.9025 15.5168C11.9936 15.7339 13.1247 15.6225 14.1525 15.1967C15.1803 14.771 16.0588 14.05 16.6769 13.125C17.295 12.2 17.6249 11.1124 17.6249 9.9999C18.122 9.99946 18.5986 9.80163 18.9499 9.4499L19.4299 8.9724ZM11.9999 5.6249C11.1346 5.6249 10.2887 5.88149 9.56927 6.36222C8.84981 6.84295 8.28905 7.52623 7.95792 8.32566C7.62678 9.12508 7.54014 10.0048 7.70895 10.8534C7.87776 11.7021 8.29444 12.4816 8.9063 13.0935C9.51815 13.7053 10.2977 14.122 11.1464 14.2908C11.995 14.4596 12.8747 14.373 13.6741 14.0419C14.4736 13.7107 15.1568 13.15 15.6376 12.4305C16.1183 11.7111 16.3749 10.8652 16.3749 9.9999H14.6511L14.4949 10.1561C14.4648 10.6364 14.2969 11.0977 14.0111 11.4848C13.7253 11.8719 13.3339 12.1683 12.8839 12.3385C12.4338 12.5086 11.9442 12.5453 11.4738 12.4441C11.0034 12.3428 10.5722 12.108 10.232 11.7678C9.89178 11.4276 9.65696 10.9964 9.55573 10.526C9.4545 10.0556 9.49116 9.566 9.66131 9.11593C9.83146 8.66587 10.1279 8.27447 10.515 7.9887C10.9021 7.70293 11.3634 7.53495 11.8436 7.5049L11.9999 7.34865V5.6249Z" fill="white"/>
</svg>
