<svg width="22" height="22" viewBox="0 0 22 22" fill="none" xmlns="http://www.w3.org/2000/svg">
<rect x="0.5" y="12.5" width="9" height="9" rx="2.5" fill="white" stroke="#485058"/>
<rect x="6.5" y="0.5" width="15" height="15" rx="2.5" fill="white" stroke="#485058"/>
<path d="M15.5 7C15.5 6.72386 15.2761 6.5 15 6.5L10.5 6.5C10.2239 6.5 10 6.72386 10 7C10 7.27614 10.2239 7.5 10.5 7.5L14.5 7.5L14.5 11.5C14.5 11.7761 14.7239 12 15 12C15.2761 12 15.5 11.7761 15.5 11.5L15.5 7ZM4.35355 18.3536L15.3536 7.35355L14.6464 6.64645L3.64645 17.6464L4.35355 18.3536Z" fill="#485058"/>
</svg>
