<svg width="15" height="12" viewBox="0 0 15 12" fill="none" xmlns="http://www.w3.org/2000/svg">
<path d="M14.5527 5.14719L11.4897 2.90335V0.538218C11.4897 0.234997 11.2371 0.0227416 10.9529 0.0227416C10.6371 0.0227416 10.4161 0.265319 10.4161 0.538218V2.08465L7.73197 0.113708C7.5425 -0.0379027 7.25831 -0.0379027 7.06884 0.113708L0.216531 5.14719C-0.0360886 5.32912 -0.067666 5.66267 0.121799 5.87492C0.311264 6.1175 0.658616 6.14782 0.879658 5.96589L1.47963 5.51105V11.4845C1.47963 11.7877 1.73225 12 2.01645 12H12.6581C12.9738 12 13.1949 11.7574 13.1949 11.4845V5.51105L13.858 5.99621C13.9527 6.05685 14.079 6.1175 14.2053 6.1175C14.3632 6.1175 14.5211 6.05685 14.6474 5.90524C14.8369 5.66267 14.8053 5.32912 14.5527 5.14719ZM12.1212 10.9994H2.58484V4.753L7.38462 1.20531L12.1212 4.72268V10.9994Z" fill="white"/>
</svg>
