<svg width="12" height="11" viewBox="0 0 12 11" fill="none" xmlns="http://www.w3.org/2000/svg">
<path d="M12 5.15625C12 4.64857 11.7302 4.21008 11.3333 3.97203V0.687715C11.3333 0.499727 11.1879 0 10.6667 0C10.5183 0 10.371 0.0511328 10.2504 0.15082L8.47896 1.6124C7.58917 2.34588 6.47208 2.75 5.33333 2.75H1.33333C0.596875 2.75 0 3.36553 0 4.125V6.1875C0 6.94697 0.596875 7.5625 1.33333 7.5625H2.03542C2.00646 7.78766 1.99 8.01668 1.99 8.25C1.99 9.10443 2.18292 9.91182 2.5225 10.6335C2.63063 10.8631 2.86667 11 3.11417 11H4.66167C5.20437 11 5.53021 10.3589 5.20125 9.91375C4.85958 9.45141 4.65646 8.87477 4.65646 8.25C4.65646 8.01131 4.69021 7.78186 4.74833 7.5625H5.33333C6.47208 7.5625 7.58917 7.96662 8.47875 8.7001L10.2502 10.1617C10.3684 10.2592 10.5151 10.3124 10.6665 10.3125C11.1856 10.3125 11.3331 9.82309 11.3331 9.625V6.34068C11.7302 6.10242 12 5.66393 12 5.15625ZM10 8.19457L9.31146 7.62652C8.18646 6.6984 6.77333 6.1875 5.33333 6.1875V4.125C6.77333 4.125 8.18646 3.6141 9.31146 2.68598L10 2.11793V8.19457Z" fill="white"/>
</svg>
