<svg width="171" height="51" viewBox="0 0 171 51" fill="none" xmlns="http://www.w3.org/2000/svg">
<path d="M20.0388 22.7458H22.4758C22.9598 22.7458 23.3978 23.0569 23.3978 23.5679C23.3978 24.2589 22.8478 24.7428 22.0838 24.7428H19.4758L20.0388 22.7458Z" fill="white"/>
<path d="M32.0269 22.759H34.3289C35.4209 22.759 35.4639 23.501 35.4639 23.712C35.4639 24.205 35.0299 25.175 33.7049 25.175H31.3589C31.3589 25.175 32.0149 22.817 32.0269 22.759Z" fill="white"/>
<path d="M18.8869 26.8159H20.9929C22.0249 26.8159 22.0839 27.0959 22.2259 27.3369C22.3669 27.5749 22.3019 28.0789 22.2039 28.2519C22.0809 28.4709 21.8729 29.1459 20.5539 29.1459H18.2129C18.2129 29.1459 18.8859 26.8189 18.8869 26.8159Z" fill="white"/>
<path d="M41.1549 20.5859V39.1069H11.9199V20.5859H17.5449L14.4289 31.3679H20.8089C23.5729 31.3679 24.0539 30.7219 24.6149 30.2519C25.3649 29.6229 25.7659 28.1279 25.4299 27.0879C25.1909 26.3519 24.4959 25.9069 24.4199 25.8849C25.2829 25.4839 25.7859 24.6049 25.8479 24.4759C26.1679 23.8099 26.4169 22.6029 25.6199 21.6319C24.9569 20.8249 23.6709 20.6029 22.7359 20.5859H29.5669L26.4399 31.3889H29.6049L30.7619 27.2939H32.5699C33.8839 27.2939 33.7649 28.1119 33.7969 28.4639L33.9009 31.4759L36.8399 31.4749C36.8399 31.4749 36.7079 28.0949 36.6959 27.8469C36.6569 26.9789 36.0819 26.5869 35.5909 26.5869C36.5329 26.3329 37.3499 25.4779 37.6769 24.9299C38.0539 24.2979 38.3379 23.2919 37.9649 22.2939C37.4239 20.8439 36.0289 20.6039 35.0549 20.5859H41.1549Z" fill="white"/>
<path d="M41.1549 9.96411H11.9199V17.0461H41.1549V9.96411Z" fill="white"/>
<path d="M72.4751 31.5221H63.4541L66.5191 20.7351H75.3271L74.6091 23.2381H69.3511L68.9051 24.7901H73.3671L72.6501 27.3131H68.1871L67.7021 29.0001H73.1931L72.4751 31.5221Z" fill="white"/>
<path d="M59.7291 20.7351H54.5291L51.4441 31.5221H54.9951L55.9451 28.1661H57.7301C57.9241 28.1661 58.1181 28.1661 58.3121 28.1461C61.0671 27.9711 62.6771 26.5551 63.2981 24.3641C63.9181 22.1511 62.8331 20.7351 59.7291 20.7351ZM59.9231 24.3831C59.6701 25.2561 59.0491 25.6051 58.3121 25.6441H56.6631L57.3421 23.2391H58.3511C59.1081 23.2381 60.1941 23.3741 59.9231 24.3831Z" fill="white"/>
<path d="M77.5582 20.7351L76.7632 23.5671H79.9442L77.6742 31.5221H81.2052L83.4752 23.5671H86.6572L87.0632 22.1511L87.4722 20.7351H77.5582Z" fill="white"/>
<path d="M94.805 20.7351H89.722L87.064 30.1051L86.657 31.5221H90.207L91.255 27.7581H92.322C92.981 27.7581 93.388 27.8351 93.621 28.0101C93.99 28.2821 93.932 28.7861 93.68 29.6401C93.66 29.7171 93.641 29.7751 93.621 29.8341C93.408 30.6871 93.31 31.3081 93.33 31.5221H96.92L97.017 31.1921C96.59 31.1921 96.765 30.7261 97.172 29.3101C97.793 27.1371 97.172 26.8661 96.162 26.4391C97.52 26.0891 98.355 25.0431 98.725 23.8001C99.306 21.7061 98.414 20.7351 94.805 20.7351ZM95.291 24.3641C95.096 25.0431 94.533 25.3341 93.621 25.3911H91.914L92.535 23.2381H94.184C95 23.2381 95.504 23.6061 95.291 24.3641Z" fill="white"/>
<path d="M107.668 20.4441C107.125 20.4441 106.582 20.5031 106.058 20.6191C103.401 21.2011 101.227 23.2001 100.412 26.0321C99.3841 29.7181 101.052 31.8131 104.428 31.8131C104.991 31.8131 105.533 31.7541 106.058 31.6381C108.62 31.0561 110.87 29.1171 111.743 26.0711C112.557 23.2191 111.529 20.4441 107.668 20.4441ZM108.191 26.0711C107.803 27.4871 107.105 28.6121 106.057 29.0191C105.785 29.1171 105.494 29.1741 105.184 29.1741C103.496 29.1741 103.554 27.4471 103.962 26.0701C104.272 24.9641 104.95 23.6831 106.057 23.2371C106.309 23.1391 106.581 23.0821 106.891 23.0821C108.463 23.0441 108.619 24.5971 108.191 26.0711Z" fill="white"/>
<path d="M120.977 20.7351H115.797L112.732 31.5221H118.009C118.242 31.5221 118.474 31.5221 118.707 31.5021C121.152 31.3661 122.955 30.4931 123.576 28.2821C123.906 27.0971 123.576 26.0891 122.49 25.7981C123.304 25.3721 124.256 24.5571 124.566 23.4511C125.168 21.2981 123.402 20.7351 120.977 20.7351ZM120.355 28.0111C120.142 28.7871 119.502 28.9811 118.707 29.0001H117L117.563 27.0211H118.708C119.813 27.0211 120.628 27.0801 120.355 28.0111ZM121.074 24.1101C120.9 24.7311 120.298 25.0431 119.58 25.0431H118.125L118.63 23.2381H119.871C120.628 23.2381 121.307 23.2581 121.074 24.1101Z" fill="white"/>
<path d="M137.138 31.1921L136.925 31.5221H137.138V31.1921Z" fill="white"/>
<path d="M137.138 21.8421C136.673 21.0851 135.489 20.7361 133.297 20.7361H128.193L125.129 31.5231H128.66L129.746 27.7591H130.813C131.472 27.7591 131.879 27.8361 132.113 28.0111C132.481 28.2831 132.424 28.7871 132.171 29.6411C132.152 29.7181 132.133 29.7761 132.113 29.8351C131.88 30.6881 131.802 31.3091 131.822 31.5231H135.412L135.488 31.1931C135.082 31.1931 135.256 30.7271 135.664 29.3111C136.283 27.1381 135.664 26.8671 134.654 26.4401C135.934 26.1101 136.769 25.1601 137.137 24.0141C137.176 23.9371 137.195 23.8791 137.215 23.8011C137.447 22.9851 137.447 22.3271 137.138 21.8421ZM133.781 24.3641C133.588 25.0431 133.025 25.3341 132.113 25.3911H130.406L131.027 23.2381H132.675C133.49 23.2381 133.994 23.6061 133.781 24.3641Z" fill="white"/>
<path d="M161.543 23.8581C161.816 21.9761 160.885 20.4441 157.897 20.4441C155.181 20.4441 152.872 21.5891 152.232 23.8971C151.049 28.0101 157.587 26.8851 157.122 28.5351C156.985 29.0391 156.307 29.3301 155.434 29.3301C155.085 29.3301 154.736 29.2321 154.503 29.0591C154.251 28.8661 154.114 28.5931 154.153 28.2051H150.758C150.291 30.1441 151.668 31.8131 154.521 31.8131C157.491 31.8131 159.934 30.5901 160.633 28.0881C161.758 24.1691 155.258 25.1581 155.724 23.5481C155.821 23.1601 156.229 22.9271 157.024 22.9271C157.354 22.9271 157.665 22.9851 157.878 23.1211C158.091 23.2571 158.227 23.4901 158.168 23.8571H161.543V23.8581Z" fill="white"/>
<path d="M148.273 31.5221L147.478 20.7351H143.869L143.638 21.0851L137.138 31.1921V31.5221H140.398L141.212 30.1051H144.742V31.5221H148.273ZM142.531 27.8551L143.637 25.8761L144.723 23.9751L144.762 27.8551H142.531Z" fill="white"/>
</svg>
