<svg width="13" height="7" viewBox="0 0 13 7" fill="none" xmlns="http://www.w3.org/2000/svg">
<path d="M6.5214 7C6.39773 7 6.28357 6.98191 6.17892 6.94574C6.07428 6.90052 5.9839 6.84173 5.90779 6.76938L0.15697 1.28876C0.109404 1.22545 0.0713502 1.1531 0.0428101 1.07171C0.01427 0.99031 1.02101e-09 0.908914 0 0.827519C-2.83614e-09 0.601421 0.0856202 0.406977 0.256861 0.244186C0.428101 0.0813951 0.632638 -5.96046e-08 0.870472 -5.96046e-08C0.965606 -5.96046e-08 1.05598 0.0180878 1.1416 0.0542635C1.22722 0.0813951 1.30333 0.117571 1.36992 0.162791L6.5214 5.01938L11.6729 0.162791C11.7395 0.117571 11.8108 0.0859169 11.8869 0.0678291C11.963 0.0406975 12.0487 0.0271315 12.1438 0.0271315C12.3816 0.0271315 12.5814 0.108527 12.7431 0.271317C12.9144 0.434108 13 0.628553 13 0.854651C13 0.927002 12.9905 0.999354 12.9715 1.07171C12.9524 1.13501 12.9239 1.19832 12.8858 1.26163L7.13502 6.72868C7.05891 6.81008 6.96853 6.87791 6.86389 6.93217C6.75924 6.97739 6.64508 7 6.5214 7Z" fill="white"/>
</svg>
